<svg width="268" height="199" viewBox="0 0 268 199" fill="none" xmlns="http://www.w3.org/2000/svg">
<path fill-rule="evenodd" clip-rule="evenodd" d="M239.53 28.7233C240.62 28.7233 240.621 27.054 239.53 27.054C238.44 27.054 238.438 28.7233 239.53 28.7233Z" fill="#F2F8FD"/>
<path fill-rule="evenodd" clip-rule="evenodd" d="M246.868 49.8688C247.957 49.8688 247.959 48.1994 246.868 48.1994C245.778 48.1994 245.776 49.8688 246.868 49.8688Z" fill="#F2F8FD"/>
<path fill-rule="evenodd" clip-rule="evenodd" d="M257.586 73.7965C258.676 73.7965 258.678 72.1271 257.586 72.1271C256.497 72.1271 256.495 73.7965 257.586 73.7965Z" fill="#F2F8FD"/>
<path fill-rule="evenodd" clip-rule="evenodd" d="M231.067 60.998C232.157 60.998 232.158 59.3286 231.067 59.3286C229.977 59.3286 229.976 60.998 231.067 60.998Z" fill="#F2F8FD"/>
<path fill-rule="evenodd" clip-rule="evenodd" d="M266.619 29.8362C267.708 29.8362 267.71 28.1669 266.619 28.1669C265.529 28.1669 265.527 29.8362 266.619 29.8362Z" fill="#F2F8FD"/>
<path fill-rule="evenodd" clip-rule="evenodd" d="M264.924 16.4811C266.014 16.4811 266.016 14.8118 264.924 14.8118C263.835 14.8118 263.833 16.4811 264.924 16.4811Z" fill="#F2F8FD"/>
<path fill-rule="evenodd" clip-rule="evenodd" d="M174.877 27.2943C175.966 27.2943 175.968 25.6249 174.877 25.6249C173.787 25.6249 173.785 27.2943 174.877 27.2943Z" fill="#F2F8FD"/>
<path fill-rule="evenodd" clip-rule="evenodd" d="M197.956 24.5546C199.045 24.5546 199.047 22.8852 197.956 22.8852C196.866 22.8852 196.864 24.5546 197.956 24.5546Z" fill="#F2F8FD"/>
<path fill-rule="evenodd" clip-rule="evenodd" d="M212.727 36.4266C213.817 36.4266 213.819 34.7572 212.727 34.7572C211.637 34.7572 211.636 36.4266 212.727 36.4266Z" fill="#F2F8FD"/>
<path fill-rule="evenodd" clip-rule="evenodd" d="M225.649 3.55012C226.739 3.55012 226.74 1.88074 225.649 1.88074C224.559 1.88074 224.558 3.55012 225.649 3.55012Z" fill="#F2F8FD"/>
<path fill-rule="evenodd" clip-rule="evenodd" d="M251.381 127.217C252.471 127.217 252.473 125.547 251.381 125.547C250.292 125.547 250.29 127.217 251.381 127.217Z" fill="#F2F8FD"/>
<path fill-rule="evenodd" clip-rule="evenodd" d="M249.124 101.063C250.213 101.063 250.215 99.3937 249.124 99.3937C248.034 99.3937 248.032 101.063 249.124 101.063Z" fill="#F2F8FD"/>
<path fill-rule="evenodd" clip-rule="evenodd" d="M218.65 119.983C219.74 119.983 219.741 118.313 218.65 118.313C217.56 118.313 217.559 119.983 218.65 119.983Z" fill="#F2F8FD"/>
<path fill-rule="evenodd" clip-rule="evenodd" d="M229.936 85.4822C231.026 85.4822 231.028 83.8129 229.936 83.8129C228.846 83.8129 228.845 85.4822 229.936 85.4822Z" fill="#F2F8FD"/>
<path fill-rule="evenodd" clip-rule="evenodd" d="M264.924 106.071C266.014 106.071 266.016 104.402 264.924 104.402C263.835 104.402 263.833 106.071 264.924 106.071Z" fill="#F2F8FD"/>
<path fill-rule="evenodd" clip-rule="evenodd" d="M254.765 181.75C255.855 181.75 255.857 180.08 254.765 180.08C253.675 180.08 253.674 181.75 254.765 181.75Z" fill="#F2F8FD"/>
<path fill-rule="evenodd" clip-rule="evenodd" d="M211.314 192.323C212.404 192.323 212.405 190.653 211.314 190.653C210.224 190.653 210.223 192.323 211.314 192.323Z" fill="#F2F8FD"/>
<path fill-rule="evenodd" clip-rule="evenodd" d="M255.896 151.701C256.986 151.701 256.987 150.032 255.896 150.032C254.806 150.032 254.805 151.701 255.896 151.701Z" fill="#F2F8FD"/>
<path fill-rule="evenodd" clip-rule="evenodd" d="M242.353 167.282C243.443 167.282 243.445 165.612 242.353 165.612C241.263 165.612 241.262 167.282 242.353 167.282Z" fill="#F2F8FD"/>
<path fill-rule="evenodd" clip-rule="evenodd" d="M243.479 199C244.569 199 244.57 197.331 243.479 197.331C242.389 197.331 242.388 199 243.479 199Z" fill="#F2F8FD"/>
<path fill-rule="evenodd" clip-rule="evenodd" d="M231.067 185.645C232.157 185.645 232.158 183.976 231.067 183.976C229.977 183.976 229.976 185.645 231.067 185.645Z" fill="#F2F8FD"/>
<path fill-rule="evenodd" clip-rule="evenodd" d="M201.155 185.645C202.245 185.645 202.246 183.976 201.155 183.976C200.065 183.976 200.063 185.645 201.155 185.645Z" fill="#F2F8FD"/>
<path fill-rule="evenodd" clip-rule="evenodd" d="M225.987 106.628C227.077 106.628 227.078 104.958 225.987 104.958C224.897 104.958 224.895 106.628 225.987 106.628Z" fill="#F2F8FD"/>
<path fill-rule="evenodd" clip-rule="evenodd" d="M171.187 4.46339C172.277 4.46339 172.278 2.79401 171.187 2.79401C170.097 2.79401 170.096 4.46339 171.187 4.46339Z" fill="#F2F8FD"/>
<path fill-rule="evenodd" clip-rule="evenodd" d="M78.1312 22.6022C79.2204 22.6022 79.2226 20.9329 78.1312 20.9329C77.042 20.9329 77.0398 22.6022 78.1312 22.6022Z" fill="#F2F8FD"/>
<path fill-rule="evenodd" clip-rule="evenodd" d="M91.1107 33.7315C92.1998 33.7315 92.2021 32.0621 91.1107 32.0621C90.0215 32.0621 90.0193 33.7315 91.1107 33.7315Z" fill="#F2F8FD"/>
<path fill-rule="evenodd" clip-rule="evenodd" d="M109.169 14.8119C110.258 14.8119 110.261 13.1425 109.169 13.1425C108.08 13.1425 108.078 14.8119 109.169 14.8119Z" fill="#F2F8FD"/>
<path fill-rule="evenodd" clip-rule="evenodd" d="M117.632 26.2192C118.721 26.2192 118.724 24.5499 117.632 24.5499C116.543 24.5499 116.541 26.2192 117.632 26.2192Z" fill="#F2F8FD"/>
<path fill-rule="evenodd" clip-rule="evenodd" d="M29.599 26.4975C30.6881 26.4975 30.6904 24.8281 29.599 24.8281C28.5098 24.8281 28.5075 26.4975 29.599 26.4975Z" fill="#F2F8FD"/>
<path fill-rule="evenodd" clip-rule="evenodd" d="M43.1419 45.4172C44.2311 45.4172 44.2334 43.7478 43.1419 43.7478C42.0528 43.7478 42.0505 45.4172 43.1419 45.4172Z" fill="#F2F8FD"/>
<path fill-rule="evenodd" clip-rule="evenodd" d="M53.3021 35.4009C54.3913 35.4009 54.3935 33.7315 53.3021 33.7315C52.2129 33.7315 52.2107 35.4009 53.3021 35.4009Z" fill="#F2F8FD"/>
<path fill-rule="evenodd" clip-rule="evenodd" d="M60.4163 2.63697C61.5055 2.63697 61.5078 0.96759 60.4163 0.96759C59.3272 0.96759 59.3249 2.63697 60.4163 2.63697Z" fill="#F2F8FD"/>
<path fill-rule="evenodd" clip-rule="evenodd" d="M71.3597 42.0784C72.4489 42.0784 72.4511 40.409 71.3597 40.409C70.2705 40.409 70.2683 42.0784 71.3597 42.0784Z" fill="#F2F8FD"/>
<path fill-rule="evenodd" clip-rule="evenodd" d="M28.472 79.9177C29.5612 79.9177 29.5634 78.2483 28.472 78.2483C27.3829 78.2483 27.3806 79.9177 28.472 79.9177Z" fill="#F2F8FD"/>
<path fill-rule="evenodd" clip-rule="evenodd" d="M52.1703 107.184C53.2594 107.184 53.2617 105.515 52.1703 105.515C51.0811 105.515 51.0788 107.184 52.1703 107.184Z" fill="#F2F8FD"/>
<path fill-rule="evenodd" clip-rule="evenodd" d="M54.4281 73.7965C55.5172 73.7965 55.5195 72.1271 54.4281 72.1271C53.3389 72.1271 53.3367 73.7965 54.4281 73.7965Z" fill="#F2F8FD"/>
<path fill-rule="evenodd" clip-rule="evenodd" d="M69.1029 104.958C70.192 104.958 70.1943 103.289 69.1029 103.289C68.0137 103.289 68.0115 104.958 69.1029 104.958Z" fill="#F2F8FD"/>
<path fill-rule="evenodd" clip-rule="evenodd" d="M21.6996 128.33C22.7887 128.33 22.791 126.66 21.6996 126.66C20.6104 126.66 20.6081 128.33 21.6996 128.33Z" fill="#F2F8FD"/>
<path fill-rule="evenodd" clip-rule="evenodd" d="M2.51205 165.056C3.60121 165.056 3.60347 163.387 2.51205 163.387C1.42289 163.387 1.42064 165.056 2.51205 165.056Z" fill="#F2F8FD"/>
<path fill-rule="evenodd" clip-rule="evenodd" d="M23.9564 187.314C25.0455 187.314 25.0478 185.645 23.9564 185.645C22.8672 185.645 22.865 187.314 23.9564 187.314Z" fill="#F2F8FD"/>
<path fill-rule="evenodd" clip-rule="evenodd" d="M38.6273 169.508C39.7164 169.508 39.7187 167.838 38.6273 167.838C37.5381 167.838 37.5359 169.508 38.6273 169.508Z" fill="#F2F8FD"/>
<path fill-rule="evenodd" clip-rule="evenodd" d="M23.3919 162.274C24.4811 162.274 24.4834 160.604 23.3919 160.604C22.3028 160.604 22.3005 162.274 23.3919 162.274Z" fill="#F2F8FD"/>
<path fill-rule="evenodd" clip-rule="evenodd" d="M7.02475 188.984C8.11391 188.984 8.11617 187.314 7.02475 187.314C5.93559 187.314 5.93333 188.984 7.02475 188.984Z" fill="#F2F8FD"/>
<path fill-rule="evenodd" clip-rule="evenodd" d="M44.2689 197.331C45.358 197.331 45.3603 195.661 44.2689 195.661C43.1797 195.661 43.1775 197.331 44.2689 197.331Z" fill="#F2F8FD"/>
<path fill-rule="evenodd" clip-rule="evenodd" d="M51.6078 178.967C52.6969 178.967 52.6992 177.298 51.6078 177.298C50.5186 177.298 50.5163 178.967 51.6078 178.967Z" fill="#F2F8FD"/>
<path fill-rule="evenodd" clip-rule="evenodd" d="M81.5169 195.105C82.6061 195.105 82.6084 193.436 81.5169 193.436C80.4278 193.436 80.4255 195.105 81.5169 195.105Z" fill="#F2F8FD"/>
<path fill-rule="evenodd" clip-rule="evenodd" d="M2.51205 141.685C3.60121 141.685 3.60347 140.015 2.51205 140.015C1.42289 140.015 1.42064 141.685 2.51205 141.685Z" fill="#F2F8FD"/>
<path fill-rule="evenodd" clip-rule="evenodd" d="M38.0638 120.539C39.153 120.539 39.1552 118.87 38.0638 118.87C36.9747 118.87 36.9724 120.539 38.0638 120.539Z" fill="#F2F8FD"/>
<path fill-rule="evenodd" clip-rule="evenodd" d="M30.7298 101.62C31.819 101.62 31.8212 99.9502 30.7298 99.9502C29.6407 99.9502 29.6384 101.62 30.7298 101.62Z" fill="#F2F8FD"/>
<path fill-rule="evenodd" clip-rule="evenodd" d="M12.1038 106.628C13.193 106.628 13.1953 104.958 12.1038 104.958C11.0147 104.958 11.0124 106.628 12.1038 106.628Z" fill="#F2F8FD"/>
<path fill-rule="evenodd" clip-rule="evenodd" d="M9.28256 77.6919C10.3717 77.6919 10.374 76.0225 9.28256 76.0225C8.1934 76.0225 8.19114 77.6919 9.28256 77.6919Z" fill="#F2F8FD"/>
<path fill-rule="evenodd" clip-rule="evenodd" d="M25.6468 62.111C26.736 62.111 26.7382 60.4416 25.6468 60.4416C24.5577 60.4416 24.5554 62.111 25.6468 62.111Z" fill="#F2F8FD"/>
<path fill-rule="evenodd" clip-rule="evenodd" d="M17.182 43.7477C18.2711 43.7477 18.2734 42.0784 17.182 42.0784C16.0928 42.0784 16.0906 43.7477 17.182 43.7477Z" fill="#F2F8FD"/>
<path fill-rule="evenodd" clip-rule="evenodd" d="M1.94467 57.6592C3.03383 57.6592 3.03609 55.9899 1.94467 55.9899C0.85551 55.9899 0.853252 57.6592 1.94467 57.6592Z" fill="#F2F8FD"/>
<path fill-rule="evenodd" clip-rule="evenodd" d="M0.817717 21.4894C1.90688 21.4894 1.90913 19.82 0.817717 19.82C-0.271443 19.82 -0.273701 21.4894 0.817717 21.4894Z" fill="#F2F8FD"/>
<path fill-rule="evenodd" clip-rule="evenodd" d="M28.1068 9.94276C29.1959 9.94276 29.1982 8.27338 28.1068 8.27338C27.0176 8.27338 27.0154 9.94276 28.1068 9.94276Z" fill="#F2F8FD"/>
<path fill-rule="evenodd" clip-rule="evenodd" d="M78.1312 13.1425C79.2204 13.1425 79.2226 11.4731 78.1312 11.4731C77.042 11.4731 77.0398 13.1425 78.1312 13.1425Z" fill="#F2F8FD"/>
<path fill-rule="evenodd" clip-rule="evenodd" d="M267.182 173.403C268.272 173.403 268.274 171.734 267.182 171.734C266.092 171.734 266.091 173.403 267.182 173.403Z" fill="#F2F8FD"/>
<path fill-rule="evenodd" clip-rule="evenodd" d="M97.3177 100.507C98.4069 100.507 98.4091 98.8373 97.3177 98.8373C96.2286 98.8373 96.2263 100.507 97.3177 100.507Z" fill="#F2F8FD"/>
<path fill-rule="evenodd" clip-rule="evenodd" d="M74.181 112.192C75.2702 112.192 75.2724 110.523 74.181 110.523C73.0918 110.523 73.0896 112.192 74.181 112.192Z" fill="#F2F8FD"/>
<path fill-rule="evenodd" clip-rule="evenodd" d="M180.275 78.2482C181.365 78.2482 181.366 76.5789 180.275 76.5789C179.185 76.5789 179.184 78.2482 180.275 78.2482Z" fill="#F2F8FD"/>
<path fill-rule="evenodd" clip-rule="evenodd" d="M181.968 92.7163C183.058 92.7163 183.06 91.0469 181.968 91.0469C180.879 91.0469 180.877 92.7163 181.968 92.7163Z" fill="#F2F8FD"/>
<path fill-rule="evenodd" clip-rule="evenodd" d="M200.591 111.636C201.681 111.636 201.683 109.966 200.591 109.966C199.502 109.966 199.5 111.636 200.591 111.636Z" fill="#F2F8FD"/>
<path fill-rule="evenodd" clip-rule="evenodd" d="M66.2167 67.2438L60.4893 64.2256L66.4424 58.464L75.2465 62.9808L66.2167 67.2438Z" fill="#F52D56"/>
<path fill-rule="evenodd" clip-rule="evenodd" d="M111.715 96.5971L107.664 96.8731L107.232 94.4602L110.091 92.6028L111.715 96.5971Z" fill="#23BBB8"/>
<path fill-rule="evenodd" clip-rule="evenodd" d="M54.8938 131.329L50.8419 131.603L50.4102 129.192L53.2662 127.334L54.8938 131.329Z" fill="#23BBB8"/>
<path fill-rule="evenodd" clip-rule="evenodd" d="M114.13 76.6379L110.078 76.9128L109.65 74.4994L112.504 72.6414L114.13 76.6379Z" fill="#23BBB8"/>
<path fill-rule="evenodd" clip-rule="evenodd" d="M32.5712 75.6262L28.5176 75.9006L28.0898 73.4889L30.9448 71.6303L32.5712 75.6262Z" fill="#23BBB8"/>
<path fill-rule="evenodd" clip-rule="evenodd" d="M157.397 143.109L153.344 143.384L152.916 140.972L155.771 139.112L157.397 143.109Z" fill="#23BBB8"/>
<path fill-rule="evenodd" clip-rule="evenodd" d="M95.026 54.066L90.973 54.3392L90.543 51.9286L93.4013 50.0689L95.026 54.066Z" fill="#23BBB8"/>
<path fill-rule="evenodd" clip-rule="evenodd" d="M169.301 106.615L165.25 106.89L164.821 104.478L167.675 102.62L169.301 106.615Z" fill="#23BBB8"/>
<path fill-rule="evenodd" clip-rule="evenodd" d="M186.022 69.2458L181.969 69.5201L181.541 67.109L184.394 65.2504L186.022 69.2458Z" fill="#23BBB8"/>
<path fill-rule="evenodd" clip-rule="evenodd" d="M148.799 158.182L144.747 158.456L144.317 156.045L147.174 154.186L148.799 158.182Z" fill="#23BBB8"/>
<path fill-rule="evenodd" clip-rule="evenodd" d="M135.1 94.6046L135.308 97.087L132.269 95.7003L132.072 92.3888L135.1 94.6046Z" fill="#EB008B"/>
<path fill-rule="evenodd" clip-rule="evenodd" d="M23.9981 112.949L21.6387 114.178L21.7126 111.067L24.8932 109.491L23.9981 112.949Z" fill="#EB008B"/>
<path fill-rule="evenodd" clip-rule="evenodd" d="M137.09 182.05L134.728 183.282L134.805 180.17L137.985 178.595L137.09 182.05Z" fill="#EB008B"/>
<path fill-rule="evenodd" clip-rule="evenodd" d="M71.9999 89.7304L69.4932 90.6903L69.9813 87.6097L73.3453 86.3989L71.9999 89.7304Z" fill="#EB008B"/>
<path fill-rule="evenodd" clip-rule="evenodd" d="M113.263 151.947L115.978 151.914L114.272 154.606L110.657 154.578L113.263 151.947Z" fill="#EB008B"/>
<path fill-rule="evenodd" clip-rule="evenodd" d="M94.9337 157.499L90.8891 158.807L89.7334 154.758L94.6194 153.226L94.9337 157.499Z" fill="#FFD200"/>
<path fill-rule="evenodd" clip-rule="evenodd" d="M68.8741 106.072L69.1089 110L64.5457 109.881L64.3115 105.15L68.8741 106.072Z" fill="#FFD200"/>
<path fill-rule="evenodd" clip-rule="evenodd" d="M45.7698 52.456L41.723 53.7648L40.5684 49.7143L45.4549 48.1818L45.7698 52.456Z" fill="#FFD200"/>
<path fill-rule="evenodd" clip-rule="evenodd" d="M123.756 49.6546L119.712 50.9618L118.555 46.9119L123.442 45.3816L123.756 49.6546Z" fill="#FFD200"/>
<path fill-rule="evenodd" clip-rule="evenodd" d="M95.6517 77.012L91.6072 78.3208L90.4531 74.2715L95.3368 72.7407L95.6517 77.012Z" fill="#FFD200"/>
<path fill-rule="evenodd" clip-rule="evenodd" d="M178.527 132.13L174.483 133.439L173.328 129.39L178.212 127.855L178.527 132.13Z" fill="#FFD200"/>
<path fill-rule="evenodd" clip-rule="evenodd" d="M79.8839 136.013L76.8213 133.28L82.0256 130.697L86.753 134.824L79.8839 136.013Z" fill="#1B75BB"/>
<path fill-rule="evenodd" clip-rule="evenodd" d="M47.4342 100.99L44.3682 97.908L49.5939 95.2782L54.3303 99.9358L47.4342 100.99Z" fill="#F52D56"/>
<path fill-rule="evenodd" clip-rule="evenodd" d="M25.8086 144.51L26.2877 141.248L30.6675 142.816L29.9948 147.801L25.8086 144.51Z" fill="#F52D56"/>
<path fill-rule="evenodd" clip-rule="evenodd" d="M167.979 50.1582L170.679 47.9925L172.854 51.8159L168.77 55.1641L167.979 50.1582Z" fill="#F52D56"/>
<path fill-rule="evenodd" clip-rule="evenodd" d="M194.647 50.1582L197.345 47.9925L199.522 51.8159L195.438 55.1641L194.647 50.1582Z" fill="#1B75BB"/>
<path fill-rule="evenodd" clip-rule="evenodd" d="M114.95 136.988L109.892 139.086L110.046 132.82L116.747 130.032L114.95 136.988Z" fill="#EB008B"/>
<path fill-rule="evenodd" clip-rule="evenodd" d="M213.764 97.7075L208.704 99.8048L208.859 93.5396L215.56 90.7518L213.764 97.7075Z" fill="#F52D56"/>
<path fill-rule="evenodd" clip-rule="evenodd" d="M184.826 88.3126L184.633 92.9613L179.108 90.2947L179.352 84.1281L184.826 88.3126Z" fill="#F52D56"/>
<path fill-rule="evenodd" clip-rule="evenodd" d="M73.7491 153.688L65.6092 156.321L63.2842 148.17L73.1165 145.087L73.7491 153.688Z" fill="#FFD200"/>
<path fill-rule="evenodd" clip-rule="evenodd" d="M266.014 154.054L261.124 154.384L260.604 151.474L264.052 149.229L266.014 154.054Z" fill="#23BBB8"/>
<path fill-rule="evenodd" clip-rule="evenodd" d="M221.912 164.006L217.023 164.339L219.952 159.185L221.912 164.006Z" fill="#23BBB8"/>
<path fill-rule="evenodd" clip-rule="evenodd" d="M216.491 140.879L211.599 141.211L211.083 138.298L214.527 136.055L216.491 140.879Z" fill="#23BBB8"/>
<path fill-rule="evenodd" clip-rule="evenodd" d="M193.433 113.635L188.541 113.964L188.022 111.055L191.471 108.81L193.433 113.635Z" fill="#23BBB8"/>
<path fill-rule="evenodd" clip-rule="evenodd" d="M108.222 79.1487L103.333 79.4803L102.815 76.5695L106.262 74.3264L108.222 79.1487Z" fill="#23BBB8"/>
<path fill-rule="evenodd" clip-rule="evenodd" d="M128.406 34.0436L123.514 34.3747L122.996 31.4644L126.441 29.2208L128.406 34.0436Z" fill="#23BBB8"/>
<path fill-rule="evenodd" clip-rule="evenodd" d="M236.186 148.073L236.435 151.069L232.768 149.395L232.53 145.398L236.186 148.073Z" fill="#F52D56"/>
<path fill-rule="evenodd" clip-rule="evenodd" d="M235.207 133.036L232.356 134.521L232.448 130.766L236.289 128.864L235.207 133.036Z" fill="#F52D56"/>
<path fill-rule="evenodd" clip-rule="evenodd" d="M139.625 48.6964L136.773 50.181L136.865 46.4255L140.706 44.524L139.625 48.6964Z" fill="#F52D56"/>
<path fill-rule="evenodd" clip-rule="evenodd" d="M228.112 108.31L223.231 109.888L221.834 105L227.734 103.153L228.112 108.31Z" fill="#FFD200"/>
<path fill-rule="evenodd" clip-rule="evenodd" d="M202.659 160.595L197.777 162.175L196.384 157.287L202.278 155.439L202.659 160.595Z" fill="#FFD200"/>
<path fill-rule="evenodd" clip-rule="evenodd" d="M138.815 11.0049L142.073 8.39124L144.699 13.0054L139.769 17.047L138.815 11.0049Z" fill="#F52D56"/>
<path fill-rule="evenodd" clip-rule="evenodd" d="M204.331 176.761L194.488 177.426L193.444 171.57L200.378 167.055L204.331 176.761Z" fill="#007AFF"/>
<path fill-rule="evenodd" clip-rule="evenodd" d="M251.56 115.029L251.328 120.64L244.659 117.421L244.953 109.978L251.56 115.029Z" fill="#F52D56"/>
<path fill-rule="evenodd" clip-rule="evenodd" d="M95.026 172.542L90.973 172.815L90.543 170.404L93.4013 168.544L95.026 172.542Z" fill="#23BBB8"/>
<path fill-rule="evenodd" clip-rule="evenodd" d="M71.92 178.322L67.8681 178.594L67.4375 176.184L70.2941 174.324L71.92 178.322Z" fill="#23BBB8"/>
<path fill-rule="evenodd" clip-rule="evenodd" d="M45.7698 170.932L41.723 172.241L40.5684 168.19L45.4549 166.657L45.7698 170.932Z" fill="#FFD200"/>
<path fill-rule="evenodd" clip-rule="evenodd" d="M123.756 168.13L119.712 169.438L118.555 165.388L123.442 163.857L123.756 168.13Z" fill="#FFD200"/>
<path fill-rule="evenodd" clip-rule="evenodd" d="M86.9539 152.151C86.9539 152.151 87.7372 153 86.9048 155.094C86.0673 157.2 82.2773 169.458 85.9014 171.133C85.9014 171.133 82.1943 172.793 78.9568 168.738C75.6266 164.566 80.1526 152.682 83.7711 150.361L86.9539 152.151Z" fill="#4252FF"/>
<path fill-rule="evenodd" clip-rule="evenodd" d="M67.9995 143.726C67.0531 145.967 62.7895 159.084 66.9978 161.049C66.9978 161.049 62.7258 162.694 58.9329 158.16C55.0221 153.487 58.71 143.593 62.5136 137.94L67.9995 143.726Z" fill="#4252FF"/>
<path fill-rule="evenodd" clip-rule="evenodd" d="M86.954 152.151L80.6651 148.401C80.6651 148.401 69.8316 164.794 60.4434 159.61C60.4434 159.61 70.4213 167.595 78.5144 160.616C86.1944 153.989 86.954 152.151 86.954 152.151Z" fill="#A1A9FF"/>
<path fill-rule="evenodd" clip-rule="evenodd" d="M77.8643 166.493C77.8643 166.493 79.7062 171.749 88.393 169.206C97.968 166.525 102.51 179.438 102.51 179.438L98.3608 186.132C98.3608 186.132 99.0713 173.061 90.7276 173.122C81.7542 173.185 79.985 172.106 77.8643 166.493Z" fill="#A1A9FF"/>
<path fill-rule="evenodd" clip-rule="evenodd" d="M174.995 143.603C174.995 143.603 174.449 144.413 175.418 146.063C176.393 147.723 181.157 157.522 178.336 159.382C178.336 159.382 181.659 160.306 183.847 156.501C186.098 152.584 180.766 143.192 177.432 141.701L174.995 143.603Z" fill="#FFCC00"/>
<path fill-rule="evenodd" clip-rule="evenodd" d="M189.792 134.152C190.876 135.913 196.149 146.372 192.875 148.549C192.875 148.549 196.67 149.39 199.263 145.112C201.935 140.702 197.563 132.873 193.642 128.612L189.792 134.152Z" fill="#FFCC00"/>
<path fill-rule="evenodd" clip-rule="evenodd" d="M174.996 143.603L179.783 139.667C179.783 139.667 190.987 152.044 198.186 146.517C198.186 146.517 190.856 154.468 183.167 149.635C175.871 145.048 174.996 143.603 174.996 143.603Z" fill="#E89A24"/>
<path fill-rule="evenodd" clip-rule="evenodd" d="M184.472 154.481C184.472 154.481 183.608 159.12 175.997 158.081C167.623 157.039 165.486 168.435 165.486 168.435L169.832 173.525C169.832 173.525 167.544 162.657 174.546 161.657C182.078 160.581 183.421 159.453 184.472 154.481Z" fill="#E89A24"/>
<path fill-rule="evenodd" clip-rule="evenodd" d="M207.226 76.0822L202.957 75.2024L204.845 79.0787L202.679 82.8098L207.001 82.2361L210.379 73.1129L207.226 76.0822Z" fill="#FF9500"/>
<path fill-rule="evenodd" clip-rule="evenodd" d="M59.5273 2.96927L55.2592 2.08951L57.1469 5.96581L54.9805 9.69687L59.3027 9.12316L62.6808 0L59.5273 2.96927Z" fill="#FF9500"/>
<path fill-rule="evenodd" clip-rule="evenodd" d="M211.006 81.191L214.983 79.4282L211.144 77.3876L210.672 73.1129L207.294 82.2361L210.223 85.4207L211.006 81.191Z" fill="#FFCC00"/>
<path fill-rule="evenodd" clip-rule="evenodd" d="M63.3102 8.07813L67.2876 6.31526L63.4485 4.27472L62.9767 0L59.5986 9.12316L62.5281 12.3078L63.3102 8.07813Z" fill="#FFCC00"/>
<path fill-rule="evenodd" clip-rule="evenodd" d="M196.736 24.824L193.648 24.1964L195.014 26.9616L193.446 29.6231L196.573 29.2139L199.017 22.7058L196.736 24.824Z" fill="#FF9500"/>
<path fill-rule="evenodd" clip-rule="evenodd" d="M199.47 28.4684L202.348 27.2108L199.57 25.7552L199.229 22.7058L196.785 29.2139L198.904 31.4856L199.47 28.4684Z" fill="#FFCC00"/>
<path fill-rule="evenodd" clip-rule="evenodd" d="M37.0413 117.061L33.9536 116.433L35.3193 119.198L33.752 121.86L36.8788 121.45L39.3227 114.942L37.0413 117.061Z" fill="#FF9500"/>
<path fill-rule="evenodd" clip-rule="evenodd" d="M39.773 120.705L42.6505 119.447L39.8731 117.992L39.5317 114.942L37.0879 121.45L39.2072 123.722L39.773 120.705Z" fill="#FFCC00"/>
</svg>
