<svg width="20" height="20" viewBox="0 0 20 20" fill="none" xmlns="http://www.w3.org/2000/svg">
<path d="M10.5 20C15.7467 20 20 15.7467 20 10.5C20 5.25329 15.7467 1 10.5 1C5.25329 1 1 5.25329 1 10.5C1 15.7467 5.25329 20 10.5 20Z" fill="#FFC850" style="fill:#FFC850;fill:color(display-p3 1.0000 0.7843 0.3137);fill-opacity:1;"/>
<path d="M9.5 19C13.6421 19 17 15.6421 17 11.5C17 7.35786 13.6421 4 9.5 4C5.35786 4 2 7.35786 2 11.5C2 15.6421 5.35786 19 9.5 19Z" fill="#DD992B" style="fill:#DD992B;fill:color(display-p3 0.8651 0.6015 0.1680);fill-opacity:1;"/>
<path d="M10.5 18C14.6421 18 18 14.6421 18 10.5C18 6.35786 14.6421 3 10.5 3C6.35786 3 3 6.35786 3 10.5C3 14.6421 6.35786 18 10.5 18Z" fill="#FFDC64" style="fill:#FFDC64;fill:color(display-p3 1.0000 0.8627 0.3922);fill-opacity:1;"/>
<path d="M14.9259 15.4607C14.8585 15.3722 14.7533 15.3206 14.641 15.3169C10.4347 15.1792 7.06732 11.7817 7.06732 7.60859C7.06732 6.49264 7.31083 5.43408 7.74568 4.47761C7.88331 4.17483 7.53952 3.87371 7.25704 4.05468C5.09659 5.43888 3.7416 7.9371 4.04139 10.7242C4.37961 13.8683 6.88377 16.4456 10.0603 16.9182C11.8136 17.1791 13.4571 16.8009 14.8144 15.9988C15.0059 15.8856 15.0599 15.6366 14.9259 15.4607V15.4607Z" fill="#FFC850" style="fill:#FFC850;fill:color(display-p3 1.0000 0.7843 0.3137);fill-opacity:1;"/>
<path fill-rule="evenodd" clip-rule="evenodd" d="M5.38775 5.35714L4 9L2.61224 5.35714L0 4.5L2.61224 3.64286L4 0L5.38775 3.64286L8 4.5L5.38775 5.35714V5.35714V5.35714Z" fill="white" style="fill:white;fill:white;fill-opacity:1;"/>
<path d="M14.0645 8.60742L13.7656 9.74414H8.24023L8.54492 8.60742H14.0645ZM11.2344 15L8.41016 11.6543L8.4043 10.6523H9.78125C10.1016 10.6523 10.3652 10.5898 10.5723 10.4648C10.7793 10.3398 10.9336 10.1719 11.0352 9.96094C11.1367 9.74609 11.1875 9.50781 11.1875 9.24609C11.1875 8.97266 11.1406 8.73047 11.0469 8.51953C10.9531 8.30859 10.8027 8.14453 10.5957 8.02734C10.3887 7.90625 10.1133 7.8457 9.76953 7.8457H8.24609L8.5918 6.46875H9.76953C10.4727 6.46875 11.0586 6.57422 11.5273 6.78516C11.9961 6.99609 12.3477 7.30078 12.582 7.69922C12.8164 8.09375 12.9336 8.57227 12.9336 9.13477C12.9336 9.62695 12.8555 10.0586 12.6992 10.4297C12.543 10.8008 12.2949 11.1074 11.9551 11.3496C11.6152 11.5879 11.168 11.7559 10.6133 11.8535L13.1562 14.918V15H11.2344ZM14.0762 6.46875L13.7715 7.59961H9.19531L9.5 6.46875H14.0762Z" fill="#DD992B" style="fill:#DD992B;fill:color(display-p3 0.8651 0.6015 0.1680);fill-opacity:1;"/>
</svg>
