<svg width="24" height="24" viewBox="0 0 24 24" fill="none" xmlns="http://www.w3.org/2000/svg">
<rect width="24" height="24" fill="#FF0000" fill-opacity="0.01"/>
<path fill-rule="evenodd" clip-rule="evenodd" d="M17.6004 4H4.00039C3.11624 4 2.40039 4.71657 2.40039 5.6C2.40039 6.48343 3.11624 7.2 4.00039 7.2H17.6004C18.4845 7.2 19.2004 6.48343 19.2004 5.6C19.2004 4.71657 18.4845 4 17.6004 4ZM12.0004 10.4H3.68039C2.93728 10.4 2.40039 11.1166 2.40039 12C2.40039 12.8834 2.93728 13.6 3.68039 13.6H12.0004C12.7435 13.6 13.2804 12.8834 13.2804 12C13.2804 11.1166 12.7435 10.4 12.0004 10.4ZM2.40039 18.4C2.40039 17.5166 3.04466 16.8 4.00039 16.8H20.0004C20.9561 16.8 21.6004 17.5166 21.6004 18.4C21.6004 19.2834 20.9561 20 20.0004 20H4.00039C3.04466 20 2.40039 19.2834 2.40039 18.4Z" fill="white"/>
<mask id="mask0_131_2966" style="mask-type:luminance" maskUnits="userSpaceOnUse" x="2" y="4" width="20" height="16">
<path fill-rule="evenodd" clip-rule="evenodd" d="M17.6004 4H4.00039C3.11624 4 2.40039 4.71657 2.40039 5.6C2.40039 6.48343 3.11624 7.2 4.00039 7.2H17.6004C18.4845 7.2 19.2004 6.48343 19.2004 5.6C19.2004 4.71657 18.4845 4 17.6004 4ZM12.0004 10.4H3.68039C2.93728 10.4 2.40039 11.1166 2.40039 12C2.40039 12.8834 2.93728 13.6 3.68039 13.6H12.0004C12.7435 13.6 13.2804 12.8834 13.2804 12C13.2804 11.1166 12.7435 10.4 12.0004 10.4ZM2.40039 18.4C2.40039 17.5166 3.04466 16.8 4.00039 16.8H20.0004C20.9561 16.8 21.6004 17.5166 21.6004 18.4C21.6004 19.2834 20.9561 20 20.0004 20H4.00039C3.04466 20 2.40039 19.2834 2.40039 18.4Z" fill="white"/>
</mask>
<g mask="url(#mask0_131_2966)">
<rect width="24" height="24" fill="white"/>
</g>
</svg>
