<svg width="21" height="21" viewBox="0 0 21 21" fill="none" xmlns="http://www.w3.org/2000/svg">
<path d="M7.33456 5.63074C6.76002 5.63074 6.30859 6.09242 6.30859 6.65671C6.30859 7.22099 6.77028 7.68267 7.33456 7.68267C7.89884 7.68267 8.36049 7.22099 8.36049 6.65671C8.36049 6.09242 7.89884 5.63074 7.33456 5.63074Z" fill="white"/>
<path d="M19.9653 3.11894C19.1035 1.1183 17.2055 0 14.5585 0H5.96087C2.66752 0 0 2.66752 0 5.96087V14.5585C0 17.2055 1.1183 19.1035 3.11894 19.9653C3.31388 20.0474 3.53959 19.9961 3.68322 19.8525L19.8525 3.68323C20.0064 3.52933 20.0577 3.30362 19.9653 3.11894ZM8.7515 10.5059C8.35138 10.8958 7.82813 11.0805 7.30489 11.0805C6.78165 11.0805 6.2584 10.8855 5.85828 10.5059C4.81179 9.52098 3.66271 7.95125 4.10387 6.08399C4.49374 4.39114 5.99165 3.63193 7.30489 3.63193C8.61813 3.63193 10.116 4.39114 10.5059 6.09425C10.9368 7.95125 9.78773 9.52098 8.7515 10.5059Z" fill="white"/>
<path d="M17.9223 19.0106C18.148 19.2363 18.1172 19.6057 17.8402 19.7596C16.9374 20.2623 15.8396 20.5188 14.5571 20.5188H5.95952C5.66199 20.5188 5.53887 20.1699 5.74407 19.9648L11.9409 13.7679C12.1461 13.5627 12.4641 13.5627 12.6693 13.7679L17.9223 19.0106Z" fill="white"/>
<path d="M20.5215 5.95976V14.5574C20.5215 15.8398 20.265 16.9479 19.7623 17.8405C19.6084 18.1175 19.239 18.138 19.0133 17.9225L13.7603 12.6696C13.5551 12.4644 13.5551 12.1463 13.7603 11.9411L19.9572 5.74431C20.1726 5.53912 20.5215 5.66223 20.5215 5.95976Z" fill="white"/>
</svg>
