<svg width="23" height="24" viewBox="0 0 23 24" fill="none" xmlns="http://www.w3.org/2000/svg">
<path d="M21.6 9.828H18.132C15.288 9.828 12.972 7.512 12.972 4.668V1.2C12.972 0.54 12.432 0 11.772 0H6.684C2.988 0 0 2.4 0 6.684V17.316C0 21.6 2.988 24 6.684 24H16.116C19.812 24 22.8 21.6 22.8 17.316V11.028C22.8 10.368 22.26 9.828 21.6 9.828ZM10.836 13.836C10.656 14.016 10.428 14.1 10.2 14.1C9.972 14.1 9.744 14.016 9.564 13.836L8.7 12.972V18C8.7 18.492 8.292 18.9 7.8 18.9C7.308 18.9 6.9 18.492 6.9 18V12.972L6.036 13.836C5.688 14.184 5.112 14.184 4.764 13.836C4.416 13.488 4.416 12.912 4.764 12.564L7.164 10.164C7.248 10.092 7.332 10.032 7.428 9.984C7.452 9.972 7.488 9.96 7.512 9.948C7.584 9.924 7.656 9.912 7.74 9.9H7.836C7.932 9.9 8.028 9.924 8.124 9.96H8.148C8.244 9.996 8.34 10.068 8.412 10.14C8.424 10.152 8.436 10.152 8.436 10.164L10.836 12.564C11.184 12.912 11.184 13.488 10.836 13.836Z" fill="#C1C0C9"/>
<path d="M17.9152 8.17257C19.0552 8.18457 20.6392 8.18457 21.9952 8.18457C22.6792 8.18457 23.0392 7.38057 22.5592 6.90057C20.8312 5.16057 17.7352 2.02857 15.9592 0.252565C15.4672 -0.239435 14.6152 0.0965655 14.6152 0.780565V4.96857C14.6152 6.72057 16.1032 8.17257 17.9152 8.17257Z" fill="#C1C0C9"/>
</svg>
