<svg width="30" height="30" viewBox="0 0 30 30" fill="none" xmlns="http://www.w3.org/2000/svg">
<rect width="30" height="30" fill="#FF0000" fill-opacity="0.01"/>
<path fill-rule="evenodd" clip-rule="evenodd" d="M25.5 9.97113H20.754C21.0945 9.73863 21.387 9.50763 21.591 9.30063C22.8015 8.08413 22.8015 6.10413 21.591 4.88763C20.415 3.70263 18.366 3.70563 17.1915 4.88763C16.5405 5.54013 14.8155 8.19663 15.054 9.97113H14.946C15.183 8.19663 13.458 5.54013 12.8085 4.88763C11.6325 3.70563 9.5835 3.70563 8.409 4.88763C7.2 6.10413 7.2 8.08413 8.4075 9.30063C8.613 9.50763 8.9055 9.73863 9.246 9.97113H4.5C3.6735 9.97113 3 10.6446 3 11.4711V13.7211C3 14.1351 3.336 14.4711 3.75 14.4711H13.5V11.4711H16.5V14.4711H26.25C26.664 14.4711 27 14.1351 27 13.7211V11.4711C27 10.6446 26.328 9.97113 25.5 9.97113ZM4.5 15.9711V24.9711C4.5 25.7991 5.1735 26.4711 6 26.4711H13.5V15.9711H4.5ZM13.134 9.97113C13.3485 9.97113 13.4115 9.92163 13.4115 9.92163C13.761 9.56013 12.756 6.96213 11.745 5.94513C11.4405 5.63913 11.037 5.47113 10.6095 5.47113C10.1805 5.47113 9.777 5.63913 9.4725 5.94513C8.844 6.57813 8.844 7.61013 9.4725 8.24313C10.119 8.89413 12.0975 9.97113 13.134 9.97113ZM16.8645 9.97113C16.6515 9.97113 16.5885 9.92313 16.5885 9.92163C16.239 9.56013 17.244 6.96213 18.255 5.94513C18.8595 5.33463 19.917 5.33163 20.5275 5.94513C21.1575 6.57813 21.1575 7.61013 20.5275 8.24313C19.881 8.89413 17.9025 9.97113 16.8645 9.97113ZM16.5 26.4711V15.9711H25.5V24.9711C25.5 25.7991 24.828 26.4711 24 26.4711H16.5Z" fill="black"/>
<mask id="mask0_1001_1946" style="mask-type:luminance" maskUnits="userSpaceOnUse" x="3" y="4" width="24" height="23">
<path fill-rule="evenodd" clip-rule="evenodd" d="M25.5 9.97113H20.754C21.0945 9.73863 21.387 9.50763 21.591 9.30063C22.8015 8.08413 22.8015 6.10413 21.591 4.88763C20.415 3.70263 18.366 3.70563 17.1915 4.88763C16.5405 5.54013 14.8155 8.19663 15.054 9.97113H14.946C15.183 8.19663 13.458 5.54013 12.8085 4.88763C11.6325 3.70563 9.5835 3.70563 8.409 4.88763C7.2 6.10413 7.2 8.08413 8.4075 9.30063C8.613 9.50763 8.9055 9.73863 9.246 9.97113H4.5C3.6735 9.97113 3 10.6446 3 11.4711V13.7211C3 14.1351 3.336 14.4711 3.75 14.4711H13.5V11.4711H16.5V14.4711H26.25C26.664 14.4711 27 14.1351 27 13.7211V11.4711C27 10.6446 26.328 9.97113 25.5 9.97113ZM4.5 15.9711V24.9711C4.5 25.7991 5.1735 26.4711 6 26.4711H13.5V15.9711H4.5ZM13.134 9.97113C13.3485 9.97113 13.4115 9.92163 13.4115 9.92163C13.761 9.56013 12.756 6.96213 11.745 5.94513C11.4405 5.63913 11.037 5.47113 10.6095 5.47113C10.1805 5.47113 9.777 5.63913 9.4725 5.94513C8.844 6.57813 8.844 7.61013 9.4725 8.24313C10.119 8.89413 12.0975 9.97113 13.134 9.97113ZM16.8645 9.97113C16.6515 9.97113 16.5885 9.92313 16.5885 9.92163C16.239 9.56013 17.244 6.96213 18.255 5.94513C18.8595 5.33463 19.917 5.33163 20.5275 5.94513C21.1575 6.57813 21.1575 7.61013 20.5275 8.24313C19.881 8.89413 17.9025 9.97113 16.8645 9.97113ZM16.5 26.4711V15.9711H25.5V24.9711C25.5 25.7991 24.828 26.4711 24 26.4711H16.5Z" fill="white"/>
</mask>
<g mask="url(#mask0_1001_1946)">
<rect width="30" height="30" fill="#C1C0C9"/>
</g>
</svg>
