<svg width="22" height="25" viewBox="0 0 22 25" fill="none" xmlns="http://www.w3.org/2000/svg">
<path d="M6.22665 0V3.11333H9.33998V3.20673C4.04732 3.95392 0 8.53051 0 14.01C0 20.0187 4.88792 24.9066 10.8966 24.9066C16.9054 24.9066 21.7933 20.0187 21.7933 14.01C21.7933 12.609 21.482 11.3014 21.015 10.1183L18.1818 11.3014C18.5243 12.2042 18.68 13.076 18.68 14.0411C18.68 18.3686 15.2242 21.8244 10.8966 21.8244C6.56912 21.8244 3.11333 18.3686 3.11333 14.0411C3.11333 9.71358 6.56912 6.25779 10.8966 6.25779C11.8306 6.25779 12.7335 6.41345 13.6364 6.75592L14.6949 3.82939C13.9788 3.58033 13.2316 3.45579 12.4533 3.33126V3.14446H15.5666V0.0311333H6.22665V0ZM21.7933 3.61146C21.7933 3.61146 10.4296 12.3599 9.83811 12.9514C9.24658 13.5741 9.24658 14.477 9.83811 15.0996C10.4296 15.7223 11.3636 15.7223 11.9863 15.0996C12.609 14.477 21.8244 3.61146 21.8244 3.61146H21.7933Z" fill="white"/>
</svg>
